<?xml version="1.0" encoding="UTF-8"?>
<svg width="4px" height="16px" viewBox="0 0 4 16" version="1.1" xmlns="http://www.w3.org/2000/svg" xmlns:xlink="http://www.w3.org/1999/xlink">
    <!-- Generator: Sketch 57.1 (83088) - https://sketch.com -->
    <title>Edit Icon</title>
    <desc>Created with Sketch.</desc>
    <g id="Pages" stroke="none" stroke-width="1" fill="none" fill-rule="evenodd">
        <g id="Blog-Overview-Template" transform="translate(-1836.000000, -1800.000000)">
            <g id="Discussions---Component" transform="translate(1351.000000, 1528.000000)">
                <g id="Comment-1" transform="translate(0.000000, 119.000000)">
                    <g id="Comment---Content" transform="translate(179.000000, 32.000000)">
                        <g id="Actions---Button-Group" transform="translate(3.000000, 105.000000)">
                            <g id="Edit" transform="translate(280.000000, 0.000000)">
                                <g id="Edit-Icon" transform="translate(13.000000, 12.000000)">
                                    <polygon id="Shape" points="0 0 24 0 24 24 0 24"></polygon>
                                    <path d="M12,8 C13.1,8 14,7.1 14,6 C14,4.9 13.1,4 12,4 C10.9,4 10,4.9 10,6 C10,7.1 10.9,8 12,8 Z M12,10 C10.9,10 10,10.9 10,12 C10,13.1 10.9,14 12,14 C13.1,14 14,13.1 14,12 C14,10.9 13.1,10 12,10 Z M12,16 C10.9,16 10,16.9 10,18 C10,19.1 10.9,20 12,20 C13.1,20 14,19.1 14,18 C14,16.9 13.1,16 12,16 Z" id="Shape" fill="#818EA3" fill-rule="nonzero"></path>
                                </g>
                            </g>
                        </g>
                    </g>
                </g>
            </g>
        </g>
    </g>
</svg>