<?xml version="1.0" encoding="UTF-8"?>
<svg width="17px" height="20px" viewBox="0 0 17 20" version="1.1" xmlns="http://www.w3.org/2000/svg" xmlns:xlink="http://www.w3.org/1999/xlink">
    <!-- Generator: Sketch 57.1 (83088) - https://sketch.com -->
    <title>file_copy</title>
    <desc>Created with Sketch.</desc>
    <g id="Pages" stroke="none" stroke-width="1" fill="none" fill-rule="evenodd">
        <g id="Add-New-Post---Template" transform="translate(-2584.000000, -740.000000)">
            <g id="Actions" transform="translate(2255.000000, 339.000000)">
                <g id="Card-Footer" transform="translate(0.000000, 361.000000)">
                    <g id="Publish---Button" transform="translate(300.000000, 21.000000)">
                        <g id="file_copy" transform="translate(27.000000, 18.000000)">
                            <polygon id="Shape" points="0 0 22 0 22 22 0 22"></polygon>
                            <path d="M14.5263158,1 L3.78947368,1 C2.80526316,1 2,1.81818182 2,2.81818182 L2,15.5454545 L3.78947368,15.5454545 L3.78947368,2.81818182 L14.5263158,2.81818182 L14.5263158,1 Z M13.6315789,4.63636364 L19,10.0909091 L19,19.1818182 C19,20.1818182 18.1947368,21 17.2105263,21 L7.35947368,21 C6.37526316,21 5.57894737,20.1818182 5.57894737,19.1818182 L5.58789474,6.45454545 C5.58789474,5.45454545 6.38421053,4.63636364 7.36842105,4.63636364 L13.6315789,4.63636364 Z M12.7368421,11 L17.6578947,11 L12.7368421,6 L12.7368421,11 Z" id="Shape" fill="#FFFFFF" fill-rule="nonzero"></path>
                        </g>
                    </g>
                </g>
            </g>
        </g>
    </g>
</svg>