<?xml version="1.0" encoding="UTF-8"?>
<svg width="17px" height="17px" viewBox="0 0 17 17" version="1.1" xmlns="http://www.w3.org/2000/svg" xmlns:xlink="http://www.w3.org/1999/xlink">
    <!-- Generator: Sketch 57.1 (83088) - https://sketch.com -->
    <title>Shape</title>
    <desc>Created with Sketch.</desc>
    <g id="Pages" stroke="none" stroke-width="1" fill="none" fill-rule="evenodd">
        <g id="Add-New-Post---Template" transform="translate(-2311.000000, -743.000000)" fill="#007BFF" fill-rule="nonzero">
            <g id="Actions" transform="translate(2255.000000, 339.000000)">
                <g id="Card-Footer" transform="translate(0.000000, 361.000000)">
                    <g id="Save-Changes---Button" transform="translate(30.000000, 21.000000)">
                        <g id="save" transform="translate(22.000000, 18.000000)">
                            <path d="M17.2222222,4 L5.88888889,4 C4.84055556,4 4,4.85 4,5.88888889 L4,19.1111111 C4,20.15 4.84055556,21 5.88888889,21 L19.1111111,21 C20.15,21 21,20.15 21,19.1111111 L21,7.77777778 L17.2222222,4 Z M12.5,19.1111111 C10.9322222,19.1111111 9.66666667,17.8455556 9.66666667,16.2777778 C9.66666667,14.71 10.9322222,13.4444444 12.5,13.4444444 C14.0677778,13.4444444 15.3333333,14.71 15.3333333,16.2777778 C15.3333333,17.8455556 14.0677778,19.1111111 12.5,19.1111111 Z M15.3333333,9.66666667 L5.88888889,9.66666667 L5.88888889,5.88888889 L15.3333333,5.88888889 L15.3333333,9.66666667 Z" id="Shape"></path>
                        </g>
                    </g>
                </g>
            </g>
        </g>
    </g>
</svg>