<?xml version="1.0" encoding="UTF-8"?>
<svg width="24px" height="19px" viewBox="0 0 24 19" version="1.1" xmlns="http://www.w3.org/2000/svg" xmlns:xlink="http://www.w3.org/1999/xlink">
    <!-- Generator: Sketch 57.1 (83088) - https://sketch.com -->
    <title>Blog Posts Icon</title>
    <desc>Created with Sketch.</desc>
    <g id="Pages" stroke="none" stroke-width="1" fill="none" fill-rule="evenodd">
        <g id="Blog-Overview-Template" transform="translate(-57.000000, -301.000000)">
            <g id="Sidebar">
                <g id="Menu-Items" transform="translate(0.000000, 137.000000)">
                    <g id="Blog-Posts" transform="translate(0.000000, 115.000000)">
                        <g id="Blog-Posts-Icon" transform="translate(53.000000, 42.000000)">
                            <polygon id="Shape" points="0 0 32 0 32 32 0 32"></polygon>
                            <path d="M4,20.5714286 L14.6666667,20.5714286 L14.6666667,17.8571429 L4,17.8571429 L4,20.5714286 Z M4,26 L14.6666667,26 L14.6666667,23.2857143 L4,23.2857143 L4,26 Z M4,15.1428571 L14.6666667,15.1428571 L14.6666667,12.4285714 L4,12.4285714 L4,15.1428571 Z M4,7 L4,9.71428571 L14.6666667,9.71428571 L14.6666667,7 L4,7 Z M17.3333333,7 L28,7 L28,26 L17.3333333,26 L17.3333333,7 Z" id="Shape" fill="#CACEDB" fill-rule="nonzero"></path>
                        </g>
                    </g>
                </g>
            </g>
        </g>
    </g>
</svg>