<?xml version="1.0" encoding="UTF-8"?>
<svg width="23px" height="23px" viewBox="0 0 23 23" version="1.1" xmlns="http://www.w3.org/2000/svg" xmlns:xlink="http://www.w3.org/1999/xlink">
    <!-- Generator: Sketch 57.1 (83088) - https://sketch.com -->
    <title>Error Icon</title>
    <desc>Created with Sketch.</desc>
    <g id="Pages" stroke="none" stroke-width="1" fill="none" fill-rule="evenodd">
        <g id="Blog-Overview-Template" transform="translate(-57.000000, -873.000000)">
            <g id="Sidebar">
                <g id="Menu-Items" transform="translate(0.000000, 137.000000)">
                    <g id="Errors" transform="translate(0.000000, 689.000000)">
                        <g id="Error-Icon" transform="translate(55.000000, 45.000000)">
                            <polygon id="Shape" points="0 0 28 0 28 28 0 28"></polygon>
                            <path d="M13.5,2 C7.152,2 2,7.152 2,13.5 C2,19.848 7.152,25 13.5,25 C19.848,25 25,19.848 25,13.5 C25,7.152 19.848,2 13.5,2 Z M14.65,19.25 L12.35,19.25 L12.35,16.95 L14.65,16.95 L14.65,19.25 Z M14.65,14.65 L12.35,14.65 L12.35,7.75 L14.65,7.75 L14.65,14.65 Z" id="Shape" fill="#CACEDB" fill-rule="nonzero"></path>
                        </g>
                    </g>
                </g>
            </g>
        </g>
    </g>
</svg>