<svg width="20" height="20" viewBox="0 0 20 20" xmlns="http://www.w3.org/2000/svg">
    <path d="M17.778 0H2.222C1 0 0 1 0 2.222v15.556C0 19 1 20 2.222 20h15.556C19 20 20 19 20 17.778V2.222C20 1 19 0 17.778 0zM10 2.222h1.667v3.334l2.222-3.334h1.889l-2.222 3.334 2.222 3.333h-1.89l-2.221-3.333v3.333H10V2.222zm-5.556 2.5h2.778V3.89H4.444V2.222H8.89V6.39H6.11v.833H8.89V8.89H4.444V4.722zm13.334 6.39l-6.667 6.666-4.444-4.445-4.445 4.445V15l4.445-4.444L11.11 15l6.667-6.667v2.778z"
          fill="#5A6169" fill-rule="nonzero"/>
</svg>
