<?xml version="1.0" encoding="UTF-8"?>
<svg width="20px" height="20px" viewBox="0 0 20 20" version="1.1" xmlns="http://www.w3.org/2000/svg" xmlns:xlink="http://www.w3.org/1999/xlink">
    <!-- Generator: Sketch 57.1 (83088) - https://sketch.com -->
    <title>Shape</title>
    <desc>Created with Sketch.</desc>
    <g id="Pages" stroke="none" stroke-width="1" fill="none" fill-rule="evenodd">
        <g id="Add-New-Post---Template" transform="translate(-2290.000000, -645.000000)" fill="#5A6169" fill-rule="nonzero">
            <g id="Actions" transform="translate(2255.000000, 339.000000)">
                <g id="Actions-List" transform="translate(30.000000, 145.000000)">
                    <g id="Readability" transform="translate(2.000000, 153.000000)">
                        <g id="score" transform="translate(0.000000, 5.000000)">
                            <path d="M20.7777778,3 L5.22222222,3 C4,3 3,4 3,5.22222222 L3,20.7777778 C3,22 4,23 5.22222222,23 L20.7777778,23 C22,23 23,22 23,20.7777778 L23,5.22222222 C23,4 22,3 20.7777778,3 Z M13,5.22222222 L14.6666667,5.22222222 L14.6666667,8.55555556 L16.8888889,5.22222222 L18.7777778,5.22222222 L16.5555556,8.55555556 L18.7777778,11.8888889 L16.8888889,11.8888889 L14.6666667,8.55555556 L14.6666667,11.8888889 L13,11.8888889 L13,5.22222222 Z M7.44444444,7.72222222 L10.2222222,7.72222222 L10.2222222,6.88888889 L7.44444444,6.88888889 L7.44444444,5.22222222 L11.8888889,5.22222222 L11.8888889,9.38888889 L9.11111111,9.38888889 L9.11111111,10.2222222 L11.8888889,10.2222222 L11.8888889,11.8888889 L7.44444444,11.8888889 L7.44444444,7.72222222 Z M20.7777778,14.1111111 L14.1111111,20.7777778 L9.66666667,16.3333333 L5.22222222,20.7777778 L5.22222222,18 L9.66666667,13.5555556 L14.1111111,18 L20.7777778,11.3333333 L20.7777778,14.1111111 Z" id="Shape"></path>
                        </g>
                    </g>
                </g>
            </g>
        </g>
    </g>
</svg>