<?xml version="1.0" encoding="UTF-8"?>
<svg width="23px" height="26px" viewBox="0 0 23 26" version="1.1" xmlns="http://www.w3.org/2000/svg" xmlns:xlink="http://www.w3.org/1999/xlink">
    <!-- Generator: Sketch 57.1 (83088) - https://sketch.com -->
    <title>Shape</title>
    <desc>Created with Sketch.</desc>
    <g id="Pages" stroke="none" stroke-width="1" fill="none" fill-rule="evenodd">
        <g id="Blog-Overview-Template" transform="translate(-1215.000000, -814.000000)" fill="#ABB6BF" fill-rule="nonzero">
            <g id="Users---Component" transform="translate(625.000000, 656.000000)">
                <g id="Block-Controls" transform="translate(0.000000, 117.000000)">
                    <g id="Date-Range---Input-Group" transform="translate(31.000000, 25.000000)">
                        <path d="M566.666667,27.5 L564.111111,27.5 L564.111111,30.0555556 L566.666667,30.0555556 L566.666667,27.5 Z M571.777778,27.5 L569.222222,27.5 L569.222222,30.0555556 L571.777778,30.0555556 L571.777778,27.5 Z M576.888889,27.5 L574.333333,27.5 L574.333333,30.0555556 L576.888889,30.0555556 L576.888889,27.5 Z M579.444444,18.5555556 L578.166667,18.5555556 L578.166667,16 L575.611111,16 L575.611111,18.5555556 L565.388889,18.5555556 L565.388889,16 L562.833333,16 L562.833333,18.5555556 L561.555556,18.5555556 C560.137222,18.5555556 559.012778,19.7055556 559.012778,21.1111111 L559,39 C559,40.4055556 560.137222,41.5555556 561.555556,41.5555556 L579.444444,41.5555556 C580.85,41.5555556 582,40.4055556 582,39 L582,21.1111111 C582,19.7055556 580.85,18.5555556 579.444444,18.5555556 Z M579.444444,39 L561.555556,39 L561.555556,24.9444444 L579.444444,24.9444444 L579.444444,39 Z" id="Shape"></path>
                    </g>
                </g>
            </g>
        </g>
    </g>
</svg>