<?xml version="1.0" encoding="UTF-8"?>
<svg width="28px" height="28px" viewBox="0 0 28 28" version="1.1" xmlns="http://www.w3.org/2000/svg" xmlns:xlink="http://www.w3.org/1999/xlink">
    <!-- Generator: Sketch 57.1 (83088) - https://sketch.com -->
    <title>Shape</title>
    <desc>Created with Sketch.</desc>
    <g id="Pages" stroke="none" stroke-width="1" fill="none" fill-rule="evenodd">
        <g id="Blog-Overview-Template" transform="translate(-625.000000, -54.000000)" fill="#CACEDB" fill-rule="nonzero">
            <g id="Main-Header-" transform="translate(569.000000, -1.000000)">
                <g id="Search" transform="translate(56.000000, 53.000000)">
                    <path d="M20.0114351,19.6100629 L18.7467124,19.6100629 L18.2984563,19.1778159 C19.8673528,17.352773 20.8118925,14.9834191 20.8118925,12.4059463 C20.8118925,6.65866209 16.1532304,2 10.4059463,2 C4.65866209,2 0,6.65866209 0,12.4059463 C0,18.1532304 4.65866209,22.8118925 10.4059463,22.8118925 C12.9834191,22.8118925 15.352773,21.8673528 17.1778159,20.2984563 L17.6100629,20.7467124 L17.6100629,22.0114351 L25.6146369,30 L28,27.6146369 L20.0114351,19.6100629 Z M10.6060606,19.8181818 C6.61535354,19.8181818 3.39393939,16.5967677 3.39393939,12.6060606 C3.39393939,8.61535354 6.61535354,5.39393939 10.6060606,5.39393939 C14.5967677,5.39393939 17.8181818,8.61535354 17.8181818,12.6060606 C17.8181818,16.5967677 14.5967677,19.8181818 10.6060606,19.8181818 Z" id="Shape"></path>
                </g>
            </g>
        </g>
    </g>
</svg>