<?xml version="1.0" encoding="UTF-8"?>
<svg width="21px" height="20px" viewBox="0 0 21 20" version="1.1" xmlns="http://www.w3.org/2000/svg" xmlns:xlink="http://www.w3.org/1999/xlink">
    <!-- Generator: Sketch 57.1 (83088) - https://sketch.com -->
    <title>Forms &amp; Components Icon</title>
    <desc>Created with Sketch.</desc>
    <g id="Pages" stroke="none" stroke-width="1" fill="none" fill-rule="evenodd">
        <g id="Blog-Overview-Template" transform="translate(-59.000000, -646.000000)">
            <g id="Sidebar">
                <g id="Menu-Items" transform="translate(0.000000, 137.000000)">
                    <g id="Tables" transform="translate(0.000000, 460.000000)">
                        <g id="Forms-&amp;-Components-Icon" transform="translate(56.000000, 46.000000)">
                            <polygon id="Shape" points="0 0 26 0 26 26 0 26"></polygon>
                            <path d="M10.7368421,10.8 L16.2631579,10.8 L16.2631579,23 L10.7368421,23 L10.7368421,10.8 Z M18.4736842,23 L21.7894737,23 C23.0052632,23 24,22 24,20.7777778 L24,10.7777778 L18.4736842,10.7777778 L18.4736842,23 Z M21.7894737,3 L5.21052632,3 C3.99473684,3 3,4 3,5.22222222 L3,8.55555556 L24,8.55555556 L24,5.22222222 C24,4 23.0052632,3 21.7894737,3 Z M3,20.7777778 C3,22 3.99473684,23 5.21052632,23 L8.52631579,23 L8.52631579,10.7777778 L3,10.7777778 L3,20.7777778 Z" id="Shape" fill="#CACEDB" fill-rule="nonzero"></path>
                        </g>
                    </g>
                </g>
            </g>
        </g>
    </g>
</svg>